<svg xmlns="http://www.w3.org/2000/svg" class="octicon octicon-eye-closed" aria-hidden="true" viewBox="0 0 16 13" width="39" height="32" version="1.1"><path fill-rule="evenodd" d="M 14.822 0.854 a 0.5 0.5 0 1 0 -0.707 -0.708 l -2.11 2.11 C 10.89 1.483 9.565 0.926 8.06 0.926 c -5.06 0 -8.06 6 -8.06 6 s 1.162 2.323 3.258 4.078 l -2.064 2.065 a 0.5 0.5 0 1 0 0.707 0.707 L 14.822 0.854 Z M 4.86 9.403 L 6.292 7.97 A 1.999 1.999 0 0 1 6 6.925 c 0 -1.11 0.89 -2 2 -2 c 0.384 0 0.741 0.106 1.045 0.292 l 1.433 -1.433 A 3.98 3.98 0 0 0 8 2.925 c -2.2 0 -4 1.8 -4 4 c 0 0.938 0.321 1.798 0.859 2.478 Z m 7.005 -3.514 l 1.993 -1.992 A 14.873 14.873 0 0 1 16 6.925 s -3 6 -7.94 6 a 6.609 6.609 0 0 1 -2.661 -0.57 l 1.565 -1.566 c 0.33 0.089 0.678 0.136 1.036 0.136 c 2.22 0 4 -1.78 4 -4 c 0 -0.358 -0.047 -0.705 -0.136 -1.036 Z M 9.338 8.415 l 0.152 -0.151 a 1.996 1.996 0 0 1 -0.152 0.151 Z"/></svg>