<svg xmlns="http://www.w3.org/2000/svg" class="octicon octicon-flame" aria-hidden="true" viewBox="0 0 12 16" width="24" height="32" version="1.1"><path fill-rule="evenodd" d="M 5.05 0.31 c 0.81 2.17 0.41 3.38 -0.52 4.31 C 3.55 5.67 1.98 6.45 0.9 7.98 c -1.45 2.05 -1.7 6.53 3.53 7.7 c -2.2 -1.16 -2.67 -4.52 -0.3 -6.61 c -0.61 2.03 0.53 3.33 1.94 2.86 c 1.39 -0.47 2.3 0.53 2.27 1.67 c -0.02 0.78 -0.31 1.44 -1.13 1.81 c 3.42 -0.59 4.78 -3.42 4.78 -5.56 c 0 -2.84 -2.53 -3.22 -1.25 -5.61 c -1.52 0.13 -2.03 1.13 -1.89 2.75 c 0.09 1.08 -1.02 1.8 -1.86 1.33 c -0.67 -0.41 -0.66 -1.19 -0.06 -1.78 C 8.18 5.31 8.68 2.45 5.05 0.32 L 5.03 0.3 l 0.02 0.01 Z"/></svg>