<svg xmlns="http://www.w3.org/2000/svg" class="octicon octicon-sync" aria-hidden="true" viewBox="0 0 12 16" width="24" height="32" version="1.1"><path fill-rule="evenodd" d="M 10.24 7.4 a 4.15 4.15 0 0 1 -1.2 3.6 a 4.346 4.346 0 0 1 -5.41 0.54 L 4.8 10.4 L 0.5 9.8 l 0.6 4.2 l 1.31 -1.26 c 2.36 1.74 5.7 1.57 7.84 -0.54 a 5.876 5.876 0 0 0 1.74 -4.46 l -1.75 -0.34 Z M 2.96 5 a 4.346 4.346 0 0 1 5.41 -0.54 L 7.2 5.6 l 4.3 0.6 l -0.6 -4.2 l -1.31 1.26 c -2.36 -1.74 -5.7 -1.57 -7.85 0.54 C 0.5 5.03 -0.06 6.65 0.01 8.26 l 1.75 0.35 A 4.17 4.17 0 0 1 2.96 5 Z"/></svg>