<svg xmlns="http://www.w3.org/2000/svg" class="octicon octicon-versions" aria-hidden="true" viewBox="0 0 14 16" width="28" height="32" version="1.1"><path fill-rule="evenodd" d="M 13 3 H 7 c -0.55 0 -1 0.45 -1 1 v 8 c 0 0.55 0.45 1 1 1 h 6 c 0.55 0 1 -0.45 1 -1 V 4 c 0 -0.55 -0.45 -1 -1 -1 Z m -1 8 H 8 V 5 h 4 v 6 Z M 4 4 h 1 v 1 H 4 v 6 h 1 v 1 H 4 c -0.55 0 -1 -0.45 -1 -1 V 5 c 0 -0.55 0.45 -1 1 -1 Z M 1 5 h 1 v 1 H 1 v 4 h 1 v 1 H 1 c -0.55 0 -1 -0.45 -1 -1 V 6 c 0 -0.55 0.45 -1 1 -1 Z"/></svg>